<?xml version="1.0" encoding="utf-8"?>
<!-- Generator: Adobe Illustrator 27.9.0, SVG Export Plug-In . SVG Version: 6.00 Build 0)  -->
<svg version="1.1" id="Шар_1" xmlns="http://www.w3.org/2000/svg" xmlns:xlink="http://www.w3.org/1999/xlink" x="0px" y="0px"
	 viewBox="0 0 21.7 21.5" style="enable-background:new 0 0 21.7 21.5;" xml:space="preserve">
<style type="text/css">
	.st0{fill:none;stroke:#000000;stroke-width:1.5;stroke-linecap:round;stroke-linejoin:round;}
</style>
<path class="st0" d="M15.5,7C16.9,7,18,5.9,18,4.5S16.9,2,15.5,2S13,3.1,13,4.5S14.1,7,15.5,7z"/>
<path class="st0" d="M5.5,12.8c1.4,0,2.5-1.1,2.5-2.5S6.9,7.8,5.5,7.8S3,9,3,10.3S4.1,12.8,5.5,12.8z"/>
<path class="st0" d="M15.5,19.5c1.4,0,2.5-1.1,2.5-2.5s-1.1-2.5-2.5-2.5S13,15.6,13,17S14.1,19.5,15.5,19.5z"/>
<path class="st0" d="M8,12l5,3.3"/>
<path class="st0" d="M13,5.3L8,9.5"/>
</svg>
